<svg xmlns="http://www.w3.org/2000/svg" width="30" height="30" baseProfile="tiny" version="1.2"><g fill="#d0e3e7"><path d="M12 0h6v1h-6zM9 1h3v1H9zM18 1h3v1h-3zM7 2h2v1H7zM21 2h2v1h-2zM6 3h1v1H6zM23 3h1v1h-1zM5 4h1v1H5zM24 4h1v1h-1zM4 5h1v1H4zM25 5h1v1h-1zM3 6h1v1H3zM26 6h1v1h-1zM2 7h1v2H2zM27 7h1v2h-1zM1 9h1v3H1zM28 9h1v3h-1zM0 12h1v6H0zM29 12h1v6h-1zM1 18h1v3H1zM28 18h1v3h-1zM2 21h1v2H2zM27 21h1v2h-1zM3 23h1v1H3zM26 23h1v1h-1zM4 24h1v1H4zM25 24h1v1h-1zM5 25h1v1H5zM24 25h1v1h-1zM6 26h1v1H6zM23 26h1v1h-1zM7 27h2v1H7zM21 27h2v1h-2zM9 28h3v1H9zM18 28h3v1h-3zM12 29h6v1h-6z"/></g></svg>