<svg xmlns="http://www.w3.org/2000/svg" width="320" height="180" baseProfile="tiny" version="1.2"><g fill="#d9eaed"><path d="M67 106h3v74h-3z"/><path d="M65 107h8v73h-8z"/><path d="M64 108h11v72H64zM43 109h4v71h-4z"/><path d="M63 109h18v71H63zM41 110h8v70h-8z"/><path d="M62 110h21v70H62zM85 110h6v70h-6zM33 111h17v69H33z"/><path d="M83 111h10v69H83zM31 112h20v68H31z"/><path d="M61 112h34v68H61zM30 113h22v67H30zM95 113h2v67h-2zM180 113h10v67h-10z"/><path d="M29 114h24v66H29zM97 114h1v66h-1zM114 114h3v66h-3zM130 114h8v66h-8zM179 114h13v66h-13zM53 115h4v65h-4z"/><path d="M58 115h41v65H58zM111 115h12v65h-12zM126 115h14v65h-14zM175 115h25v65h-25zM16 116h3v64h-3zM23 116h3v64h-3z"/><path d="M28 116h72v64H28zM103 116h4v64h-4zM110 116h31v64h-31zM171 116h31v64h-31zM219 116h7v64h-7zM229 116h3v64h-3zM317 116h3v64h-3z"/><path d="M14 117h128v63H14zM169 117h34v63h-34zM217 117h17v63h-17zM248 117h15v63h-15zM270 117h4v63h-4zM315 117h5v63h-5z"/><path d="M13 118h130v62H13zM167 118h37v62h-37zM216 118h20v62h-20zM246 118h30v62h-30zM313 118h7v62h-7z"/><path d="M12 119h131v61H12zM166 119h39v61h-39zM215 119h22v61h-22zM245 119h32v61h-32zM311 119h9v61h-9z"/><path d="M11 120h133v60H11zM161 120h45v60h-45zM214 120h24v60h-24zM244 120h34v60h-34zM292 120h8v60h-8zM310 120h10v60h-10z"/><path d="M159 121h48v59h-48zM238 121h2v59h-2zM243 121h36v59h-36zM284 121h3v59h-3zM288 121h14v59h-14zM308 121h12v59h-12zM5 122h3v58H5zM10 122h134v58H10z"/><path d="M158 122h50v58h-50zM213 122h66v58h-66zM281 122h23v58h-23zM307 122h13v58h-13zM2 123h143v57H2zM147 123h6v57h-6z"/><path d="M157 123h52v57h-52zM210 123h95v57h-95zM306 123h14v57h-14z"/><path d="M0 124h320v26H0zM145 150h175v30H145z"/><path d="M1 151h319v29H1z"/><path d="M0 152h320v28H0z"/></g></svg>