<svg xmlns="http://www.w3.org/2000/svg" width="320" height="180" baseProfile="tiny" version="1.2"><g fill="#cbe3e6"><path d="M248 126h6v54h-6z"/><path d="M245 127h13v53h-13zM265 127h6v53h-6z"/><path d="M238 128h23v52h-23zM263 128h9v52h-9zM275 128h4v52h-4z"/><path d="M237 129h45v51h-45zM283 129h3v51h-3zM301 129h3v51h-3z"/><path d="M236 130h53v50h-53zM298 130h8v50h-8z"/><path d="M235 131h56v49h-56zM297 131h10v49h-10z"/><path d="M234 132h60v48h-60zM296 132h12v48h-12z"/><path d="M231 133h84v47h-84z"/><path d="M228 134h88v46h-88z"/><path d="M226 135h91v45h-91z"/><path d="M225 136h93v12h-93z"/><path d="M224 137h96v10h-96z"/><path d="M223 138h97v8h-97z"/><path d="M222 140h98v4h-98zM318 147h2v33h-2zM222 148h3v32h-3z"/><path d="M317 148h3v32h-3z"/><path d="M219 149h101v31H219z"/><path d="M218 150h102v30H218z"/><path d="M217 151h103v29H217z"/><path d="M216 153h104v27H216z"/><path d="M215 156h105v24H215zM207 157h4v23h-4z"/><path d="M198 158h15v22h-15z"/><path d="M196 159h18v21h-18zM184 160h4v20h-4z"/><path d="M195 160h125v20H195zM182 161h8v19h-8z"/><path d="M194 161h126v19H194zM181 162h10v18h-10z"/><path d="M193 162h127v18H193z"/><path d="M180 163h140v17H180z"/><path d="M175 164h145v16H175z"/><path d="M174 165h146v15H174z"/><path d="M173 166h147v14H173z"/><path d="M172 167h148v13H172z"/><path d="M171 168h149v12H171z"/><path d="M169 170h151v10H169z"/><path d="M167 171h153v9H167z"/><path d="M166 172h154v8H166z"/><path d="M165 173h155v7H165z"/><path d="M164 174h156v6H164z"/><path d="M163 175h157v5H163z"/><path d="M162 176h158v4H162z"/><path d="M159 179h161v1H159z"/></g></svg>