<svg xmlns="http://www.w3.org/2000/svg" width="320" height="180" baseProfile="tiny" version="1.2"><g fill="#d2e6e9"><path d="M158 130h4v50h-4z"/><path d="M156 131h8v49h-8z"/><path d="M154 132h11v48h-11z"/><path d="M152 133h19v47h-19zM119 134h5v46h-5zM125 134h10v46h-10z"/><path d="M151 134h21v46h-21zM117 135h20v45h-20z"/><path d="M150 135h23v45h-23zM116 136h22v44h-22z"/><path d="M146 136h28v44h-28zM102 137h7v43h-7zM110 137h29v43h-29z"/><path d="M144 137h30v43h-30z"/><path d="M101 138h73v42h-73zM177 138h4v42h-4z"/><path d="M100 139h83v41h-83z"/><path d="M99 140h89v40H99zM188 141h3v39h-3zM202 141h8v39h-8zM191 142h2v38h-2z"/><path d="M197 142h15v38h-15zM93 143h4v37h-4z"/><path d="M193 143h20v37h-20z"/><path d="M91 144h122v36H91z"/><path d="M90 145h125v35H90z"/><path d="M88 146h128v34H88z"/><path d="M87 147h131v33H87zM218 148h1v32h-1z"/><path d="M86 149h133v31H86z"/><path d="M85 150h135v30H85zM71 152h6v28h-6z"/><path d="M84 152h139v28H84zM69 153h9v27h-9zM223 153h2v27h-2z"/><path d="M68 154h159v26H68z"/><path d="M66 155h162v25H66zM229 155h10v25h-10z"/><path d="M65 156h175v24H65zM240 157h1v23h-1z"/><path d="M63 158h179v22H63z"/><path d="M62 159h180v21H62z"/><path d="M61 160h182v7H61zM243 161h1v19h-1z"/><path d="M60 162h186v3H60zM246 163h1v17h-1z"/><path d="M244 165h4v15h-4z"/><path d="M242 167h6v13h-6z"/><path d="M61 168h187v12H61z"/><path d="M60 169h188v11H60z"/><path d="M58 170h191v10H58z"/><path d="M54 171h197v9H54z"/><path d="M53 172h199v8H53z"/><path d="M52 173h209v7H52z"/><path d="M51 174h212v6H51zM263 175h1v5h-1zM264 176h1v4h-1zM265 177h1v3h-1z"/></g></svg>