<svg xmlns="http://www.w3.org/2000/svg" width="320" height="180" baseProfile="tiny" version="1.2"><g fill="#c7e0e5"><path d="M4 130h6v50H4z"/><path d="M2 131h10v49H2z"/><path d="M0 132h13v48H0zM13 133h1v47h-1zM14 134h1v46h-1zM32 135h8v45h-8zM43 135h6v45h-6zM15 136h1v44h-1z"/><path d="M30 136h21v44H30zM16 137h10v43H16z"/><path d="M28 137h25v43H28z"/><path d="M26 138h28v42H26zM54 140h1v40h-1zM58 140h10v40H58z"/><path d="M56 141h14v39H56z"/><path d="M55 142h16v38H55zM85 142h7v38h-7zM71 143h1v37h-1z"/><path d="M83 143h11v37H83zM72 144h1v36h-1z"/><path d="M81 144h15v36H81z"/><path d="M80 145h26v35H80zM73 146h1v34h-1zM106 146h2v34h-2zM74 147h2v33h-2z"/><path d="M79 147h30v33H79z"/><path d="M76 148h35v32H76zM111 149h1v31h-1zM112 150h1v30h-1zM113 152h1v28h-1zM114 154h1v26h-1zM118 154h4v26h-4z"/><path d="M116 155h8v25h-8z"/><path d="M115 156h11v24h-11zM137 156h7v24h-7zM126 157h1v23h-1z"/><path d="M135 157h11v23h-11z"/><path d="M133 158h14v22h-14zM127 159h1v21h-1z"/><path d="M132 159h16v21h-16z"/><path d="M130 160h18v20h-18z"/><path d="M128 161h21v19h-21zM149 162h1v18h-1zM150 163h1v17h-1zM151 165h2v15h-2zM153 166h2v14h-2zM155 167h2v13h-2zM157 168h1v12h-1zM158 169h1v11h-1zM159 171h1v9h-1zM160 172h1v8h-1zM161 173h1v7h-1zM162 174h1v6h-1zM163 176h1v4h-1zM164 178h3v2h-3zM167 179h2v1h-2z"/></g></svg>